<svg width="45" height="45" viewBox="0 0 45 45" fill="none" xmlns="http://www.w3.org/2000/svg">
<rect width="45" height="45" rx="5" fill="white"/>
<path d="M25.8906 26.8906H20.0938V23.2344H25.8906C26.7865 23.2344 27.5156 23.0885 28.0781 22.7969C28.6406 22.4948 29.0521 22.0781 29.3125 21.5469C29.5729 21.0156 29.7031 20.4167 29.7031 19.75C29.7031 19.0729 29.5729 18.4427 29.3125 17.8594C29.0521 17.276 28.6406 16.8073 28.0781 16.4531C27.5156 16.099 26.7865 15.9219 25.8906 15.9219H21.7188V35H17.0312V12.25H25.8906C27.6719 12.25 29.1979 12.5729 30.4688 13.2188C31.75 13.8542 32.7292 14.7344 33.4062 15.8594C34.0833 16.9844 34.4219 18.2708 34.4219 19.7188C34.4219 21.1875 34.0833 22.4583 33.4062 23.5312C32.7292 24.6042 31.75 25.4323 30.4688 26.0156C29.1979 26.599 27.6719 26.8906 25.8906 26.8906Z" fill="#005321"/>
</svg>
